<svg class="diagram-root" style="background: #f5f6f6" xmlns="http://www.w3.org/2000/svg" xmlns:xlink="http://www.w3.org/1999/xlink"><style>.diagram-root { font-family: "Helvetica Neue", sans-serif; font-size: 12px; } .t { overflow: visible; } .t-bg { y: 40; fill: #fff;   } .th { fill: #005aa0;   } .tht { fill: #fff; font-size: 14px;  } .tf { fill: #323c46; overflow: visible; } .tf.pk { fill: #005aa0; font-weight: bold; } .tf.fk { font-weight: bold; } .ty { fill: #adb1b5; font-weight: normal; text-anchor: end; } .r { fill: transparent; stroke: #c3c3c3; stroke-width: 1; } .l { stroke: 1; } .i { fill: #c2c7ce; stroke: #c2c7ce; } .i.ix { fill: #afb3b6; stroke: #000; } .fa { fill: transparent; overflow: visible; } .fa .bg.hover { fill: #f7f7f7; } .c { cy: 12; r: 4; stroke: #d2d2dc; fill: #d2d2dc; } .hr { fill: transparent; stroke: #323c46; stroke-opacity: 0.035; stroke-width: 13; } .dc { stroke: #fa5a3c; fill: #fa5a3c; } .x { stroke: white; stroke-width: 1; } .hl .th { fill: #1b9bff; } .hl .tht {  } .fhl .bg { fill: #e7f4ff; } .fhls .bg {  } .r.hl { stroke: #1b9bff; } .dim { opacity: 0.25; }</style><g class="drawing-wrapper" transform="translate(-37, -52) scale(1,1)"><g class="rs"><path d="M 370 430 m -1, 0 a 1,1 0 1,0 2,0 a 1,1 0 1,0 -2,0 M 370 430 m -0.5, 0 a 0.5,0.5 0 1,0 1,0 a 0.5,0.5 0 1,0 -1,0  M370 430 L370 430 358 430 M 370 436 m -1, 0 a 1,1 0 1,0 2,0 a 1,1 0 1,0 -2,0 M 370 436 m -0.5, 0 a 0.5,0.5 0 1,0 1,0 a 0.5,0.5 0 1,0 -1,0  M370 436 L370 436 363 430 370 424 M 370 424 m -1, 0 a 1,1 0 1,0 2,0 a 1,1 0 1,0 -2,0 M 370 424 m -0.5, 0 a 0.5,0.5 0 1,0 1,0 a 0.5,0.5 0 1,0 -1,0  M358 430 Q 336.54 430, 315.09 284.5 T 272.18 139 M 260.18 139 m -1, 0 a 1,1 0 1,0 2,0 a 1,1 0 1,0 -2,0 M 260.18 139 m -0.5, 0 a 0.5,0.5 0 1,0 1,0 a 0.5,0.5 0 1,0 -1,0  M260.18 139 L260.18 139 272.18 139 M266.18 145 L266.18 145 266.18 133" id="h3679041181" class="r"></path><path d="M 566 170 m -1, 0 a 1,1 0 1,0 2,0 a 1,1 0 1,0 -2,0 M 566 170 m -0.5, 0 a 0.5,0.5 0 1,0 1,0 a 0.5,0.5 0 1,0 -1,0  M566 170 L566 170 554 170 M 566 176 m -1, 0 a 1,1 0 1,0 2,0 a 1,1 0 1,0 -2,0 M 566 176 m -0.5, 0 a 0.5,0.5 0 1,0 1,0 a 0.5,0.5 0 1,0 -1,0  M566 176 L566 176 559 170 566 164 M 566 164 m -1, 0 a 1,1 0 1,0 2,0 a 1,1 0 1,0 -2,0 M 566 164 m -0.5, 0 a 0.5,0.5 0 1,0 1,0 a 0.5,0.5 0 1,0 -1,0  M554 170 Q 483.54 170, 413.09 154.5 T 272.18 139 M 260.18 139 m -1, 0 a 1,1 0 1,0 2,0 a 1,1 0 1,0 -2,0 M 260.18 139 m -0.5, 0 a 0.5,0.5 0 1,0 1,0 a 0.5,0.5 0 1,0 -1,0  M260.18 139 L260.18 139 272.18 139 M266.18 145 L266.18 145 266.18 133" id="h1880336011" class="r"></path></g><g class="hrs"></g><g class="ts"><svg width="201.18" height="250" x="59" y="82" id="h1601461185" class="t"><rect height="40" width="201.18" class="th"></rect><text x="13" y="25" class="tht">Funcionarios</text><rect height="210" width="201.18" class="t-bg"></rect><text x="13" y="61" class="tf fk">doc_identificacion<tspan x="188.18" class="ty">bigINT?</tspan></text><text x="13" y="86" class="tf">nombres<tspan x="188.18" class="ty">VARCHAR(100)?</tspan></text><text x="13" y="111" class="tf">apellidos<tspan x="188.18" class="ty">VARCHAR(100)?</tspan></text><text x="13" y="136" class="tf">estado_civil<tspan x="188.18" class="ty">VARCHAR(50)?</tspan></text><text x="13" y="161" class="tf">sexo<tspan x="188.18" class="ty">CHAR(1)?</tspan></text><text x="13" y="186" class="tf">direccion<tspan x="188.18" class="ty">VARCHAR(255)?</tspan></text><text x="13" y="211" class="tf">telefono<tspan x="188.18" class="ty">VARCHAR(20)?</tspan></text><text x="13" y="236" class="tf">fecha_nacimiento<tspan x="188.18" class="ty">DATE?</tspan></text></svg><svg width="209.41" height="300" x="370" y="348" id="h2126321012" class="t"><rect height="40" width="209.41" class="th"></rect><text x="13" y="25" class="tht">Relaciones_familiares</text><rect height="260" width="209.41" class="t-bg"></rect><text x="13" y="61" class="tf">identificacion_familiar<tspan x="196.41" class="ty">bigINT?</tspan></text><text x="13" y="86" class="tf fk">doc_identificacion<tspan x="196.41" class="ty">bigINT?</tspan></text><text x="13" y="111" class="tf">rol<tspan x="196.41" class="ty">VARCHAR(50)?</tspan></text><text x="13" y="136" class="tf">nombres<tspan x="196.41" class="ty">VARCHAR(100)?</tspan></text><text x="13" y="161" class="tf">apellidos<tspan x="196.41" class="ty">VARCHAR(100)?</tspan></text><text x="13" y="186" class="tf">estado_civil<tspan x="196.41" class="ty">VARCHAR(50)?</tspan></text><text x="13" y="211" class="tf">sexo<tspan x="196.41" class="ty">CHAR(1)?</tspan></text><text x="13" y="236" class="tf">direccion<tspan x="196.41" class="ty">VARCHAR(255)?</tspan></text><text x="13" y="261" class="tf">telefono<tspan x="196.41" class="ty">VARCHAR(20)?</tspan></text><text x="13" y="286" class="tf">fecha_nacimiento<tspan x="196.41" class="ty">DATE?</tspan></text></svg><svg width="214.53" height="175" x="566" y="88" id="h897717566" class="t"><rect height="40" width="214.53" class="th"></rect><text x="13" y="25" class="tht">Informacion_academica</text><rect height="135" width="214.53" class="t-bg"></rect><text x="13" y="61" class="tf">matricula_profesional<tspan x="201.53" class="ty">bigINT?</tspan></text><text x="13" y="86" class="tf fk">doc_identificacion<tspan x="201.53" class="ty">bigINT?</tspan></text><text x="13" y="111" class="tf">universidad<tspan x="201.53" class="ty">VARCHAR(100)?</tspan></text><text x="13" y="136" class="tf">titulo<tspan x="201.53" class="ty">VARCHAR(100)?</tspan></text><text x="13" y="161" class="tf">nivel_estudios<tspan x="201.53" class="ty">VARCHAR(50)?</tspan></text></svg></g></g><text class="qdbd-link" x="10" y="20">www.quickdatabasediagrams.com</text></svg>